<?xml version="1.0" encoding="UTF-8"?><!DOCTYPE svg PUBLIC "-//W3C//DTD SVG 1.1//EN" "http://www.w3.org/Graphics/SVG/1.1/DTD/svg11.dtd"><svg xmlns="http://www.w3.org/2000/svg"><symbol id="app" viewBox="0 0 60 60"><path d="M42.595 0h-25.19A4.411 4.411 0 0 0 13 4.405v51.189A4.411 4.411 0 0 0 17.405 60h25.189A4.411 4.411 0 0 0 47 55.595V4.405A4.411 4.411 0 0 0 42.595 0zM15 8h30v38H15V8zm2.405-6h25.189A2.408 2.408 0 0 1 45 4.405V6H15V4.405A2.408 2.408 0 0 1 17.405 2zm25.19 56h-25.19A2.408 2.408 0 0 1 15 55.595V48h30v7.595A2.408 2.408 0 0 1 42.595 58z"/><path d="M30 49c-2.206 0-4 1.794-4 4s1.794 4 4 4 4-1.794 4-4-1.794-4-4-4zm0 6c-1.103 0-2-.897-2-2s.897-2 2-2 2 .897 2 2-.897 2-2 2zM26 5h4a1 1 0 1 0 0-2h-4a1 1 0 1 0 0 2zM33 5h1a1 1 0 1 0 0-2h-1a1 1 0 1 0 0 2zM56.612 4.569a.999.999 0 1 0-1.414 1.414c3.736 3.736 3.736 9.815 0 13.552a.999.999 0 1 0 1.414 1.414c4.516-4.515 4.516-11.864 0-16.38z"/><path d="M52.401 6.845a.999.999 0 1 0-1.414 1.414c1.237 1.237 1.918 2.885 1.918 4.639s-.681 3.401-1.918 4.638a.999.999 0 1 0 1.414 1.414c1.615-1.614 2.504-3.764 2.504-6.052s-.888-4.439-2.504-6.053zM4.802 5.983a.999.999 0 1 0-1.414-1.414c-4.516 4.516-4.516 11.864 0 16.38a.997.997 0 0 0 1.414 0 .999.999 0 0 0 0-1.414c-3.737-3.736-3.737-9.815 0-13.552z"/><path d="M9.013 6.569a.999.999 0 0 0-1.414 0c-1.615 1.614-2.504 3.764-2.504 6.052s.889 4.438 2.504 6.053a.997.997 0 0 0 1.414 0 .999.999 0 0 0 0-1.414c-1.237-1.237-1.918-2.885-1.918-4.639s.68-3.401 1.918-4.638a1 1 0 0 0 0-1.414z"/></symbol><symbol id="branding" viewBox="0 0 455.881 455.881"><path d="M321.218 257.555c15.516-20.46 23.717-44.881 23.717-70.624 0-31.563-12.379-61.151-34.857-83.314-22.474-22.158-52.261-34.124-83.828-33.668-30.591.433-59.412 12.708-81.154 34.564-21.741 21.855-33.867 50.741-34.145 81.335-.238 26.228 8.011 51.088 23.855 71.894 25.721 33.776 39.887 75.149 39.887 116.498v45.244c0 20.069 16.327 36.396 36.396 36.396h33.854c20.069 0 36.396-16.328 36.396-36.396v-45.241c.001-41.806 13.691-82.157 39.879-116.688zm-174.478-8.9c-13.808-18.132-20.997-39.803-20.79-62.67.499-54.935 45.588-100.26 100.512-101.037 27.553-.37 53.493 10.035 73.084 29.352 19.597 19.321 30.389 45.116 30.389 72.632 0 22.442-7.147 43.729-20.669 61.56-27.593 36.385-42.45 78.833-43.058 122.93h-76.536c-.627-43.669-15.817-87.161-42.932-122.767zm42.953 165.746v-6.072l76.647 8.781v2.374c0 1.25-.13 2.468-.336 3.659l-76.311-8.742zm0-21.17v-6.809h76.647v15.59l-76.647-8.781zm21.396 47.65c-8.057 0-15.082-4.48-18.731-11.077l64.567 7.397a21.27 21.27 0 0 1-11.981 3.679h-33.855z"/><path d="M153.776 198.213a76.76 76.76 0 0 1-.827-11.983 7.5 7.5 0 0 0-7.431-7.568c-4.114-.036-7.53 3.289-7.568 7.431a91.79 91.79 0 0 0 .99 14.333 7.501 7.501 0 0 0 8.525 6.312 7.501 7.501 0 0 0 6.311-8.525zM197.913 312.135a7.5 7.5 0 0 0 7.126-9.844 237.946 237.946 0 0 0-36.82-69.994 75.768 75.768 0 0 1-7.016-11.079 7.5 7.5 0 1 0-13.325 6.889 90.891 90.891 0 0 0 8.408 13.278 222.98 222.98 0 0 1 34.504 65.591 7.502 7.502 0 0 0 7.123 5.159zM306.746 212.613a7.5 7.5 0 0 0-9.855 3.921 75.018 75.018 0 0 1-9.139 15.643 7.5 7.5 0 0 0 11.952 9.063 90.13 90.13 0 0 0 10.963-18.772 7.499 7.499 0 0 0-3.921-9.855zM227.941 111.938c41.352 0 74.994 33.643 74.994 74.995 0 2.351-.108 4.72-.321 7.041a7.5 7.5 0 0 0 14.937 1.371c.254-2.775.384-5.605.384-8.412 0-49.623-40.371-89.995-89.994-89.995a7.5 7.5 0 0 0 0 15zM227.941 57a7.5 7.5 0 0 0 7.5-7.5v-42a7.5 7.5 0 0 0-15 0v42a7.5 7.5 0 0 0 7.5 7.5zM152.065 71.82a7.497 7.497 0 0 0 10.245 2.746 7.5 7.5 0 0 0 2.746-10.245l-20.99-36.36a7.5 7.5 0 0 0-12.991 7.499l20.99 36.36zM388.22 272.115l-36.36-20.99a7.498 7.498 0 0 0-10.245 2.746 7.5 7.5 0 0 0 2.746 10.245l36.36 20.99a7.498 7.498 0 0 0 10.245-2.746 7.5 7.5 0 0 0-2.746-10.245zM67.661 104.366l36.36 20.99a7.498 7.498 0 0 0 10.245-2.746 7.5 7.5 0 0 0-2.746-10.245l-36.36-20.99a7.499 7.499 0 0 0-10.245 2.746 7.5 7.5 0 0 0 2.746 10.245zM408.68 180.74h-42a7.5 7.5 0 0 0 0 15h42a7.5 7.5 0 0 0 0-15zM96.7 188.24a7.5 7.5 0 0 0-7.5-7.5h-42a7.5 7.5 0 0 0 0 15h42a7.5 7.5 0 0 0 7.5-7.5zM348.117 126.362a7.465 7.465 0 0 0 3.743-1.006l36.36-20.99a7.5 7.5 0 0 0-7.499-12.991l-36.36 20.99a7.5 7.5 0 0 0 3.756 13.997zM104.021 251.125l-36.36 20.99a7.5 7.5 0 0 0 7.499 12.991l36.36-20.99a7.5 7.5 0 0 0-7.499-12.991zM293.571 74.566a7.498 7.498 0 0 0 10.245-2.746l20.99-36.36a7.5 7.5 0 0 0-12.991-7.499l-20.99 36.36a7.5 7.5 0 0 0 2.746 10.245z"/></symbol><symbol id="dribble" viewBox="0 0 508.52 508.52"><path d="M254.26 0C114.067 0 0 114.067 0 254.26s114.067 254.26 254.26 254.26 254.26-114.067 254.26-254.26S394.452 0 254.26 0zm168.097 117.246c30.257 36.963 48.532 84.033 49.009 135.298-7.183-1.526-78.916-16.082-151.221-6.992l-4.672-11.219a683.718 683.718 0 0 0-14.397-31.465c80.314-32.768 116.705-79.425 121.281-85.622zM254.26 37.408c55.174 0 105.613 20.69 143.943 54.729-3.877 5.562-36.55 49.485-113.781 78.439-35.596-65.377-75.038-119.089-81.045-127.13a216.764 216.764 0 0 1 50.883-6.038zm-92.328 20.627c5.721 7.85 44.527 61.626 80.505 125.604-101.577 26.983-191.044 26.602-200.77 26.475 14.079-67.411 59.497-123.411 120.265-152.079zM37.058 254.578l.095-6.643c9.503.222 114.767 1.557 223.177-30.893a708.736 708.736 0 0 1 17.639 36.868l-8.581 2.574c-111.97 36.2-171.562 134.917-176.52 143.307-34.642-38.488-55.778-89.403-55.81-145.213zm217.17 217.169c-50.185 0-96.46-17.099-133.296-45.83 3.909-7.946 47.896-92.932 170.386-135.616l1.43-.477c30.511 79.202 43.065 145.627 46.339 164.697-26.03 11.092-54.729 17.258-84.859 17.226zm121.377-37.122c-2.225-13.222-13.825-76.786-42.175-154.844 68.046-10.901 127.829 6.96 135.266 9.312-9.725 60.387-44.336 112.606-93.091 145.532z" fill="#090509"/></symbol><symbol id="github" viewBox="0 0 512 512"><path d="M256 0C114.615 0 0 114.615 0 256s114.615 256 256 256 256-114.615 256-256S397.385 0 256 0zm152.027 408.027c-19.76 19.759-42.756 35.267-68.354 46.094a213.671 213.671 0 0 1-19.801 7.246V423c0-20.167-6.916-35-20.75-44.5 8.668-.833 16.625-2 23.875-3.5s14.918-3.667 23-6.5c8.084-2.833 15.334-6.208 21.75-10.125 6.418-3.917 12.584-9 18.5-15.25 5.918-6.25 10.875-13.333 14.875-21.25s7.168-17.417 9.5-28.5c2.334-11.083 3.5-23.292 3.5-36.625 0-25.833-8.416-47.833-25.25-66 7.668-20 6.834-41.75-2.5-65.25l-6.25-.75c-4.332-.5-12.125 1.333-23.375 5.5s-23.875 11-37.875 20.5c-19.832-5.5-40.416-8.25-61.749-8.25-21.5 0-42 2.75-61.5 8.25-8.833-6-17.208-10.958-25.125-14.875s-14.25-6.583-19-8-9.167-2.292-13.25-2.625-6.708-.417-7.875-.25-2 .333-2.5.5c-9.333 23.667-10.167 45.417-2.5 65.25-16.833 18.167-25.25 40.167-25.25 66 0 13.333 1.167 25.542 3.5 36.625s5.5 20.583 9.5 28.5 8.958 15 14.875 21.25 12.083 11.333 18.5 15.25 13.667 7.292 21.75 10.125 15.75 5 23 6.5 15.208 2.667 23.875 3.5c-13.667 9.333-20.5 24.167-20.5 44.5v39.115a213.687 213.687 0 0 1-22.3-7.994c-25.597-10.827-48.594-26.335-68.353-46.094-19.758-19.758-35.267-42.756-46.093-68.354C46.679 313.195 41 285.043 41 256s5.679-57.195 16.879-83.675c10.827-25.597 26.335-48.594 46.093-68.353 19.758-19.759 42.756-35.267 68.353-46.093C198.805 46.679 226.957 41 256 41s57.195 5.679 83.676 16.879c25.598 10.827 48.594 26.335 68.354 46.093 19.758 19.758 35.266 42.756 46.092 68.353C465.32 198.805 471 226.957 471 256s-5.68 57.195-16.879 83.675c-10.826 25.596-26.336 48.595-46.094 68.352z"/></symbol><symbol id="twitter" viewBox="0 0 512 512"><path d="M256 0C114.609 0 0 114.609 0 256c0 141.392 114.609 256 256 256 141.392 0 256-114.608 256-256C512 114.609 397.392 0 256 0zm0 472c-119.297 0-216-96.702-216-216 0-119.297 96.703-216 216-216 119.298 0 216 96.703 216 216 0 119.298-96.702 216-216 216z"/><path d="M384 170.922c-4.312 2.562-17.248 7.671-29.312 8.953 7.735-4.491 19.188-19.203 22.016-30.89-7.436 5.109-24.516 12.562-32.95 12.562 0 0 0 .023.016.039C334.141 150.75 320.608 144 305.577 144c-29.154 0-52.81 25.461-52.81 56.875 0 4.36.481 8.595 1.357 12.672h-.017c-39.562-1.094-85.811-22.446-111.874-59-16 29.852-2.156 63.046 16.015 75.141-6.203.516-17.671-.766-23.061-6.407-.375 19.797 8.484 46.048 40.735 55.562-6.221 3.61-17.19 2.579-21.984 1.781 1.687 16.75 23.437 38.623 47.202 38.623-8.47 10.534-37.373 29.706-73.141 23.596C152.298 358.782 180.625 368 210.608 368c85.205 0 151.376-74.359 147.814-166.093 0-.11-.031-.219-.031-.313 0-.25.031-.5.031-.719 0-.281-.031-.562-.031-.859 7.75-5.688 18.155-15.782 25.609-29.094z"/></symbol><symbol id="web" viewBox="0 0 439.479 439.479"><path d="M407.18 60.082H32.298C14.488 60.082 0 74.571 0 92.381v226.626c0 17.81 14.488 32.299 32.298 32.299H138.55l-12.162 13.091h-18.23c-4.143 0-7.5 3.358-7.5 7.5s3.357 7.5 7.5 7.5H331.32c4.143 0 7.5-3.358 7.5-7.5s-3.357-7.5-7.5-7.5h-18.23l-12.162-13.091H407.18c17.81 0 32.299-14.489 32.299-32.299V92.381c0-17.81-14.49-32.299-32.299-32.299zM15 310.504v-209.62h409.479v209.621H15zM32.298 75.081H407.18c7.24 0 13.447 4.475 16.021 10.801H16.277c2.575-6.325 8.781-10.801 16.021-10.801zm260.318 289.314H146.862l12.162-13.091h121.43l12.162 13.091zm114.564-28.09H32.298c-7.24 0-13.446-4.475-16.021-10.801h406.924c-2.575 6.325-8.781 10.801-16.021 10.801z"/></symbol></svg>