<?xml version='1.0' encoding='iso-8859-1'?>
<!DOCTYPE svg PUBLIC '-//W3C//DTD SVG 1.1//EN' 'http://www.w3.org/Graphics/SVG/1.1/DTD/svg11.dtd'>
<svg version="1.1" xmlns="http://www.w3.org/2000/svg" viewBox="0 0 439.479 439.479" xmlns:xlink="http://www.w3.org/1999/xlink" enable-background="new 0 0 439.479 439.479">
  <g>
    <path d="m407.18,60.082h-374.882c-17.81,0-32.298,14.489-32.298,32.299v226.626c0,17.81 14.488,32.299 32.298,32.299h106.252l-12.162,13.091h-18.23c-4.143,0-7.5,3.358-7.5,7.5s3.357,7.5 7.5,7.5h223.162c4.143,0 7.5-3.358 7.5-7.5s-3.357-7.5-7.5-7.5h-18.23l-12.162-13.091h106.252c17.81,0 32.299-14.489 32.299-32.299v-226.626c0-17.81-14.49-32.299-32.299-32.299zm-392.18,250.422v-209.62h409.479v209.621h-409.479zm17.298-235.423h374.882c7.24,0 13.447,4.475 16.021,10.801h-406.924c2.575-6.325 8.781-10.801 16.021-10.801zm260.318,289.314h-145.754l12.162-13.091h121.43l12.162,13.091zm114.564-28.09h-374.882c-7.24,0-13.446-4.475-16.021-10.801h406.924c-2.575,6.325-8.781,10.801-16.021,10.801z"/>
  </g>
</svg>
